<svg height="83.804" width="402.256" xmlns="http://www.w3.org/2000/svg"><g fill="#fff"><path d="m398.68 80.311h-395.103v-76.649h395.103zm-393.623-1.48h392.143v-73.689h-392.143z"/><path d="m402.256 83.804h-402.256v-83.804h402.256zm-401.516-.74h400.776v-82.324h-400.776z"/><path d="m46.182 28.8-1.186 3.015h-.254c.045-.181.067-.423.067-.728 0-.26-.093-.426-.279-.5-.186-.073-.482-.11-.887-.11h-6.507v21.344c0 .88.07 1.481.212 1.802.141.322.333.525.576.61.243.084.635.127 1.177.127v.254h-6.758v-.254c.847-.056 1.378-.22 1.592-.491s.322-.835.322-1.693v-21.7h-6.236c-.631 0-1.043.037-1.234.11-.192.074-.288.257-.288.551 0 .147.045.372.135.677h-.254l-1.185-3.014h.254c.203.407.403.652.6.737.198.085.623.127 1.277.127h16.556c.654 0 1.124-.042 1.412-.127.287-.084.498-.33.634-.737zm19.756 13.364h-13.703v9.591c0 .902.042 1.477.127 1.725s.243.457.475.626c.231.169.635.254 1.211.254v.254h-6.454v-.254c1.175.079 1.762-.491 1.762-1.71v-20.058c0-1.139-.093-1.862-.279-2.166-.186-.305-.681-.474-1.482-.508v-.254h6.454v.254c-.711.045-1.191.181-1.44.407s-.373.689-.373 1.389v9.757h13.703v-8.927c0-1.017-.088-1.708-.263-2.075s-.663-.551-1.465-.551v-.254h6.369v.254c-.503 0-.878.059-1.124.178a.954.954 0 0 0 -.503.55c-.09.248-.134.88-.134 1.896v19.144c0 .982.044 1.594.134 1.836.09.243.246.443.47.601s.609.237 1.158.237v.254h-6.369v-.254c.688 0 1.149-.141 1.38-.423s.347-1.043.347-2.284v-9.489zm6.914-12.212v-.288h15.684v3.438h-.254c-.339-1.276-.624-2.027-.855-2.253-.232-.225-.799-.339-1.703-.339h-8.232v11.196h7.639c.756 0 1.236-.07 1.44-.212s.311-.347.322-.619h.254v2.354h-.254c-.056-.327-.189-.547-.398-.661-.209-.113-.596-.17-1.16-.17h-7.842v7.707c0 1.163.107 2.002.321 2.515.214.514.556.836 1.023.965.468.13 1.176.195 2.123.195h4.398c1.399 0 2.292-.048 2.681-.143s.719-.286.99-.572c.27-.286.479-.912.626-1.877h.254v3.422h-17.057v-.25c.576-.034 1.013-.144 1.312-.33s.449-.669.449-1.447v-20.143c0-.914-.079-1.557-.237-1.93-.158-.372-.666-.558-1.524-.558zm40.855.034 1.186 3.117-.203.034c0-.011-.314-.344-.94-.999a6.696 6.696 0 0 0 -2.151-1.516c-.807-.356-1.719-.533-2.736-.533-1.706 0-3.057.489-4.057 1.465-1 .977-1.499 2.154-1.499 3.531 0 .915.234 1.714.703 2.397.468.684 1.447 1.321 2.937 1.912 2.561.864 4.314 1.513 5.258 1.947s1.853 1.17 2.729 2.208 1.314 2.369 1.314 3.993a7.76 7.76 0 0 1 -.237 1.938 6.433 6.433 0 0 1 -.762 1.776 7.738 7.738 0 0 1 -1.262 1.557c-.491.468-.991.823-1.499 1.066-.508.242-1.31.426-2.405.55-1.096.124-1.818.186-2.168.186h-6.657v-7.249h.254c.023 2.405.587 4.082 1.694 5.03 1.107.949 2.829 1.423 5.166 1.423 2.123 0 3.735-.503 4.836-1.508s1.651-2.213 1.651-3.625c0-.858-.192-1.589-.576-2.194-.384-.604-.92-1.135-1.609-1.592s-1.992-1.015-3.911-1.674c-1.907-.67-3.248-1.256-4.022-1.759-.774-.502-1.421-1.258-1.941-2.268s-.78-2.039-.78-3.089c0-1.929.663-3.548 1.99-4.856 1.327-1.309 3.068-1.963 5.225-1.963.835 0 1.739.096 2.71.288s1.513.317 1.626.373a.3.3 0 0 0 .136.034zm16.651 13.144h-7.322l-3.777 9.418c-.26.677-.39 1.095-.39 1.253 0 .373.277.559.83.559v.254h-3.709v-.254c.496 0 .913-.121 1.252-.364s.711-.873 1.117-1.89l9.043-22.814h.449l8.896 22.033c0 .114.228.648.684 1.602.456.955 1.152 1.433 2.087 1.433v.254h-5.827v-.254c.531 0 .796-.209.796-.627 0-.282-.13-.734-.39-1.355a.571.571 0 0 1 -.119-.22c-.023-.113-.04-.169-.051-.169zm-7.083-.695h6.748l-3.371-8.503zm37.014-11.518.932 2.642h-.249c-2.416-2.405-5.259-3.608-8.532-3.608-3.398 0-6.142 1.011-8.236 3.032-2.093 2.022-3.14 4.466-3.14 7.334 0 1.773.465 3.811 1.397 6.115a13 13 0 0 0 4.413 5.683c2.01 1.485 4.443 2.227 7.3 2.227 1.875 0 3.712-.302 5.514-.906 1.801-.604 3.142-1.415 4.023-2.431l.22.068-1.745 2.676c-2.823.61-4.655.971-5.497 1.084-.841.113-1.968.17-3.379.17-5.228 0-8.968-1.211-11.221-3.634-2.253-2.422-3.379-5.321-3.379-8.698 0-2.281.578-4.474 1.736-6.581 1.158-2.106 2.826-3.766 5.005-4.98 2.18-1.214 4.669-1.821 7.47-1.821 1.4 0 2.611.127 3.633.381s1.872.516 2.549.787l1.118.423a.275.275 0 0 1 .068.037zm4.228-1.253h7.148v.254c-.78-.034-1.327.082-1.643.347s-.474.957-.474 2.075v9.57l14.821-11.129c.293-.203.44-.389.44-.559 0-.203-.333-.305-.999-.305v-.254h5.386v.254c-1.356.034-2.678.53-3.966 1.488l-12.916 9.635 12.884 9.783a.166.166 0 0 0 .051.034c.023.011.04.028.051.051a.143.143 0 0 0 .068.017c1.693 1.264 3.005 2.153 3.937 2.666s1.805.769 2.618.769v.254h-8.486v-.254c.756 0 1.135-.085 1.135-.254 0-.146-.311-.457-.932-.931l-14.093-10.705v9.252c0 1.083.076 1.748.229 1.996.152.249.356.426.609.533.254.107.669.144 1.245.11v.254h-7.114v-.255c.949.045 1.544-.099 1.787-.432s.364-1.035.364-2.107v-19.347c0-1.106-.121-1.822-.364-2.149s-.838-.463-1.787-.407v-.254zm28.645 24.95v-.254c.779 0 1.284-.147 1.516-.44.231-.293.347-.795.347-1.507v-20.413c0-.722-.091-1.244-.271-1.566-.181-.321-.723-.493-1.626-.516v-.254h6.691v.254c-.621 0-1.056.079-1.304.238-.249.158-.412.344-.491.559-.079.214-.119.7-.119 1.456v17.514c0 1.502.361 2.561 1.083 3.176.722.616 1.957.923 3.704.923h3.045c1.465 0 2.54-.361 3.222-1.084.682-.722 1.062-2.083 1.141-4.082h.254v5.996zm19.376-24.662v-.288h15.685v3.438h-.253c-.339-1.276-.624-2.027-.856-2.253-.232-.225-.799-.339-1.703-.339h-8.232v11.196h7.639c.756 0 1.236-.07 1.44-.212.203-.141.31-.347.322-.619h.254v2.354h-.254c-.057-.327-.189-.547-.398-.661-.209-.113-.595-.17-1.16-.17h-7.842v7.707c0 1.163.107 2.002.321 2.515.215.514.556.836 1.023.965.468.13 1.176.195 2.124.195h4.398c1.398 0 2.291-.048 2.681-.143.389-.095.719-.286.99-.572s.479-.912.625-1.877h.254v3.422h-17.057v-.25c.576-.034 1.014-.144 1.313-.33s.448-.669.448-1.447v-20.143c0-.914-.079-1.557-.237-1.93-.159-.372-.667-.558-1.525-.558zm18.857-.034v-.254h7.08c1.796 0 3.094.04 3.896.119s1.624.342 2.465.788 1.476 1.051 1.906 1.813c.429.763.644 1.698.644 2.805 0 1.266-.382 2.473-1.144 3.619-.762 1.147-1.839 2.116-3.227 2.907l1.761 2.708c.383.677 1.403 2.161 3.057 4.451s2.933 3.687 3.837 4.189c.903.503 1.779.754 2.626.754.835 0 1.795-.322 2.879-.965l.102.339c-1.355 1.107-3.114 1.66-5.28 1.66-1.443 0-2.685-.427-3.722-1.282-1.039-.855-2.845-3.2-5.42-7.037-.023-.022-.034-.045-.034-.067l-2.508-3.86-2.223.068h-2.02v9.539c0 .767.1 1.317.302 1.649.201.333.688.499 1.46.499v.254h-6.437v-.254c.802-.034 1.302-.203 1.499-.508.198-.304.297-.925.297-1.862v-19.821c0-.643-.085-1.176-.254-1.6-.17-.422-.684-.64-1.542-.651zm4.675.406v11.704h2.613c2.059 0 3.587-.485 4.583-1.457.995-.971 1.494-2.247 1.494-3.828 0-1.535-.489-2.989-1.468-4.362-.978-1.372-2.701-2.058-5.168-2.058h-2.054zm52.526-1.524-1.185 3.015h-.254c.045-.181.067-.423.067-.728 0-.26-.093-.426-.278-.5-.186-.073-.483-.11-.887-.11h-6.507v21.344c0 .88.07 1.481.212 1.802.141.322.332.525.575.61.243.084.636.127 1.177.127v.254h-6.758v-.254c.847-.056 1.378-.22 1.593-.491.214-.271.322-.835.322-1.693v-21.7h-6.237c-.63 0-1.042.037-1.233.11-.192.074-.287.257-.287.551 0 .147.044.372.135.677h-.253l-1.186-3.015h.254c.202.407.403.652.6.737s.622.127 1.277.127h16.555c.653 0 1.124-.042 1.412-.127.288-.084.499-.33.634-.737h.252zm1.428 1.118v-.254h7.08c1.796 0 3.094.04 3.896.119s1.624.342 2.465.788 1.476 1.051 1.906 1.813c.429.763.644 1.698.644 2.805 0 1.266-.382 2.473-1.144 3.619-.762 1.147-1.839 2.116-3.227 2.907l1.761 2.708c.383.677 1.403 2.161 3.057 4.451s2.933 3.687 3.837 4.189c.903.503 1.779.754 2.626.754.835 0 1.795-.322 2.879-.965l.102.339c-1.355 1.107-3.114 1.66-5.28 1.66-1.443 0-2.685-.427-3.722-1.282-1.039-.855-2.845-3.2-5.42-7.037-.023-.022-.034-.045-.034-.067l-2.508-3.86-2.223.068h-2.02v9.539c0 .767.1 1.317.302 1.649.201.333.688.499 1.46.499v.254h-6.437v-.254c.802-.034 1.302-.203 1.499-.508.198-.304.297-.925.297-1.862v-19.821c0-.643-.085-1.176-.254-1.6-.17-.422-.684-.64-1.542-.651zm4.675.406v11.704h2.613c2.059 0 3.587-.485 4.583-1.457.995-.971 1.494-2.247 1.494-3.828 0-1.535-.49-2.989-1.468-4.362-.978-1.372-2.701-2.058-5.168-2.058h-2.054zm44.294 24.29h-4.725v-3.845c-2.403 2.676-5.268 4.015-8.596 4.015-2.471 0-4.43-.695-5.881-2.084-1.449-1.389-2.174-3.308-2.174-5.759v-14.94c0-.903-.108-1.476-.322-1.719-.215-.242-.717-.364-1.508-.364v-.254h6.624v.254c-.701 0-1.195.11-1.482.331-.288.22-.433.742-.433 1.567v13.703c0 2.869.672 4.915 2.013 6.14 1.342 1.225 2.87 1.838 4.586 1.838 2.695 0 5.086-1.214 7.173-3.642v-16.888c0-1.479-.13-2.357-.389-2.634-.26-.277-.667-.415-1.22-.415h-.237v-.254h6.572v.254c-.812.045-1.324.181-1.533.407-.209.225-.313.654-.313 1.286v20.312c0 .802.039 1.326.118 1.574s.24.454.483.618.658.246 1.245.246v.253zm14.626-24.628 1.185 3.117-.203.034c0-.011-.313-.344-.939-.999a6.69 6.69 0 0 0 -2.152-1.516c-.807-.356-1.719-.533-2.736-.533-1.705 0-3.057.489-4.057 1.465-.999.977-1.498 2.154-1.498 3.531 0 .915.234 1.714.702 2.397.468.684 1.447 1.321 2.937 1.912 2.561.864 4.314 1.513 5.257 1.947.944.434 1.854 1.17 2.73 2.208s1.314 2.369 1.314 3.993a7.76 7.76 0 0 1 -.237 1.938 6.464 6.464 0 0 1 -.762 1.776 7.773 7.773 0 0 1 -1.262 1.557c-.491.468-.991.823-1.499 1.066-.508.242-1.309.426-2.405.55s-1.818.186-2.168.186h-6.656v-7.249h.253c.023 2.405.587 4.082 1.694 5.03 1.106.949 2.829 1.423 5.167 1.423 2.123 0 3.735-.503 4.835-1.508 1.101-1.005 1.652-2.213 1.652-3.625 0-.858-.192-1.589-.575-2.194-.384-.604-.921-1.135-1.609-1.592-.689-.457-1.993-1.015-3.911-1.674-1.907-.67-3.248-1.256-4.022-1.759-.775-.502-1.422-1.258-1.942-2.268s-.78-2.039-.78-3.089c0-1.929.663-3.548 1.99-4.856 1.327-1.309 3.069-1.963 5.225-1.963.835 0 1.739.096 2.711.288.97.192 1.513.317 1.626.373a.288.288 0 0 0 .135.034zm23.442-1.186-1.185 3.015h-.254c.045-.181.067-.423.067-.728 0-.26-.093-.426-.278-.5-.186-.073-.483-.11-.887-.11h-6.507v21.344c0 .88.07 1.481.212 1.802.141.322.332.525.575.61.243.084.636.127 1.177.127v.254h-6.758v-.254c.847-.056 1.378-.22 1.593-.491.214-.271.322-.835.322-1.693v-21.7h-6.238c-.63 0-1.042.037-1.233.11-.192.074-.287.257-.287.551 0 .147.044.372.135.677h-.253l-1.186-3.015h.254c.202.407.403.652.6.737s.622.127 1.277.127h16.555c.653 0 1.124-.042 1.412-.127.288-.084.499-.33.634-.737h.253z"/></g></svg>